<svg height="494" width="720" xmlns="http://www.w3.org/2000/svg">
<rect height="494" fill="#555" width="720"></rect>
<text fill="#7f7" font-family="Courier New" font-size="12" xml:space="preserve">
<tspan x="10" y="26">24 megabytes installed</tspan>
<tspan x="10" y="42"></tspan>
<tspan x="10" y="58">node_modules</tspan>
<tspan x="10" y="74">├── UNMET PEER DEPENDENCY react@&gt;=0.14.0</tspan>
<tspan x="10" y="90">├── UNMET PEER DEPENDENCY react-dom@&gt;=0.14.0</tspan>
<tspan x="10" y="106">└─┬ react-foundation-components@0.12.0 </tspan>
<tspan x="10" y="122">  ├─┬ babel-runtime@6.23.0 </tspan>
<tspan x="10" y="138">  │ ├── core-js@2.4.1 </tspan>
<tspan x="10" y="154">  │ └── regenerator-runtime@0.10.3 </tspan>
<tspan x="10" y="170">  ├── classnames@2.2.5 </tspan>
<tspan x="10" y="186">  ├── dom-helpers@2.4.0 </tspan>
<tspan x="10" y="202">  ├─┬ foundation-sites@6.3.1 </tspan>
<tspan x="10" y="218">  │ ├── jquery@3.2.1 </tspan>
<tspan x="10" y="234">  │ └── what-input@4.1.1 </tspan>
<tspan x="10" y="250">  ├── lodash@4.17.4 </tspan>
<tspan x="10" y="266">  ├── UNMET PEER DEPENDENCY react@&gt;=0.14.0</tspan>
<tspan x="10" y="282">  ├── UNMET PEER DEPENDENCY react-dom@&gt;=0.14.0</tspan>
<tspan x="10" y="298">  ├─┬ react-overlays@0.6.12 </tspan>
<tspan x="10" y="314">  │ ├── dom-helpers@3.2.1 </tspan>
<tspan x="10" y="330">  │ ├── UNMET PEER DEPENDENCY react@&gt;=0.14.0</tspan>
<tspan x="10" y="346">  │ └─┬ warning@3.0.0 </tspan>
<tspan x="10" y="362">  │   └─┬ loose-envify@1.3.1 </tspan>
<tspan x="10" y="378">  │     └── js-tokens@3.0.1 </tspan>
<tspan x="10" y="394">  ├── react-prop-types@0.4.0 </tspan>
<tspan x="10" y="410">  ├─┬ uncontrollable@4.1.0 </tspan>
<tspan x="10" y="426">  │ └── invariant@2.2.2 </tspan>
<tspan x="10" y="442">  └─┬ underscore.string@3.3.4 </tspan>
<tspan x="10" y="458">    ├── sprintf-js@1.0.3 </tspan>
<tspan x="10" y="474">    └── util-deprecate@1.0.2</tspan>
</text>
</svg>
